PathFileType	4	(X/Y/Z)	C:\Users\israe\Desktop\Doctoral Research\Projects\PhaseIA\OPENSIM_october\ExperimentalData\subject1\100\P1S100W01.trc
DataRate	CameraRate	NumFrames	NumMarkers	Units	OrigDataRate	OrigDataStartFrame	OrigNumFrames
100.000000	100.000000	3	136	mm	100.000000	184	246
Frame#	Time	PELVIS_cgm24O			PELVIS_cgm24A			PELVIS_cgm24L			PELVIS_cgm24P			LFEMUR_cgm24O			LFEMUR_cgm24A			LFEMUR_cgm24L			LFEMUR_cgm24P			LTIBIA_cgm24O			LTIBIA_cgm24A			LTIBIA_cgm24L			LTIBIA_cgm24P			LFOOT_cgm24O			LFOOT_cgm24A			LFOOT_cgm24L			LFOOT_cgm24P			LTOES_cgm24O			LTOES_cgm24A			LTOES_cgm24L			LTOES_cgm24P			RFEMUR_cgm24O			RFEMUR_cgm24A			RFEMUR_cgm24L			RFEMUR_cgm24P			RTIBIA_cgm24O			RTIBIA_cgm24A			RTIBIA_cgm24L			RTIBIA_cgm24P			RFOOT_cgm24O			RFOOT_cgm24A			RFOOT_cgm24L			RFOOT_cgm24P			RTOES_cgm24O			RTOES_cgm24A			RTOES_cgm24L			RTOES_cgm24P			THORAX_cgm24O			THORAX_cgm24A			THORAX_cgm24L			THORAX_cgm24P			LUPPERARM_cgm24O			LUPPERARM_cgm24A			LUPPERARM_cgm24L			LUPPERARM_cgm24P			LFOREARM_cgm24O			LFOREARM_cgm24A			LFOREARM_cgm24L			LFOREARM_cgm24P			LHAND_cgm24O			LHAND_cgm24A			LHAND_cgm24L			LHAND_cgm24P			RUPPERARM_cgm24O			RUPPERARM_cgm24A			RUPPERARM_cgm24L			RUPPERARM_cgm24P			RFOREARM_cgm24O			RFOREARM_cgm24A			RFOREARM_cgm24L			RFOREARM_cgm24P			RHAND_cgm24O			RHAND_cgm24A			RHAND_cgm24L			RHAND_cgm24P			HEAD_cgm24O			HEAD_cgm24A			HEAD_cgm24L			HEAD_cgm24P			LFHD			RFHD			LBHD			RBHD			C7			T10			CLAV			STRN			RBAK			LSHO			LELB			LFRM			LWRA			LWRB			LFIN			RSHO			RELB			RFRM			RWRA			RWRB			RFIN			LASI			RASI			LPSI			RPSI			LTHI			LTHAP			LTHAD			LKNE			LTIB			LTIAP			LTIAD			LANK			LHEE			LTOE			LFMH			LVMH			RTHI			RTHAP			RTHAD			RKNE			RTIB			RTIAP			RTIAD			RANK			RHEE			RTOE			RFMH			RVMH			RPel			LPel			LMEL			RMEL			LHJC_cgm24			RHJC_cgm24			LKJC_cgm24			RKJC_cgm24			LAJC_cgm24			RAJC_cgm24			LFJC_cgm24			RFJC_cgm24			LSJC_cgm24			RSJC_cgm24			LEJC_cgm24			REJC_cgm24			LHO_cgm24			RHO_cgm24			CentreOfMass_cgm24			
		X1	Y1	Z1	X2	Y2	Z2	X3	Y3	Z3	X4	Y4	Z4	X5	Y5	Z5	X6	Y6	Z6	X7	Y7	Z7	X8	Y8	Z8	X9	Y9	Z9	X10	Y10	Z10	X11	Y11	Z11	X12	Y12	Z12	X13	Y13	Z13	X14	Y14	Z14	X15	Y15	Z15	X16	Y16	Z16	X17	Y17	Z17	X18	Y18	Z18	X19	Y19	Z19	X20	Y20	Z20	X21	Y21	Z21	X22	Y22	Z22	X23	Y23	Z23	X24	Y24	Z24	X25	Y25	Z25	X26	Y26	Z26	X27	Y27	Z27	X28	Y28	Z28	X29	Y29	Z29	X30	Y30	Z30	X31	Y31	Z31	X32	Y32	Z32	X33	Y33	Z33	X34	Y34	Z34	X35	Y35	Z35	X36	Y36	Z36	X37	Y37	Z37	X38	Y38	Z38	X39	Y39	Z39	X40	Y40	Z40	X41	Y41	Z41	X42	Y42	Z42	X43	Y43	Z43	X44	Y44	Z44	X45	Y45	Z45	X46	Y46	Z46	X47	Y47	Z47	X48	Y48	Z48	X49	Y49	Z49	X50	Y50	Z50	X51	Y51	Z51	X52	Y52	Z52	X53	Y53	Z53	X54	Y54	Z54	X55	Y55	Z55	X56	Y56	Z56	X57	Y57	Z57	X58	Y58	Z58	X59	Y59	Z59	X60	Y60	Z60	X61	Y61	Z61	X62	Y62	Z62	X63	Y63	Z63	X64	Y64	Z64	X65	Y65	Z65	X66	Y66	Z66	X67	Y67	Z67	X68	Y68	Z68	X69	Y69	Z69	X70	Y70	Z70	X71	Y71	Z71	X72	Y72	Z72	X73	Y73	Z73	X74	Y74	Z74	X75	Y75	Z75	X76	Y76	Z76	X77	Y77	Z77	X78	Y78	Z78	X79	Y79	Z79	X80	Y80	Z80	X81	Y81	Z81	X82	Y82	Z82	X83	Y83	Z83	X84	Y84	Z84	X85	Y85	Z85	X86	Y86	Z86	X87	Y87	Z87	X88	Y88	Z88	X89	Y89	Z89	X90	Y90	Z90	X91	Y91	Z91	X92	Y92	Z92	X93	Y93	Z93	X94	Y94	Z94	X95	Y95	Z95	X96	Y96	Z96	X97	Y97	Z97	X98	Y98	Z98	X99	Y99	Z99	X100	Y100	Z100	X101	Y101	Z101	X102	Y102	Z102	X103	Y103	Z103	X104	Y104	Z104	X105	Y105	Z105	X106	Y106	Z106	X107	Y107	Z107	X108	Y108	Z108	X109	Y109	Z109	X110	Y110	Z110	X111	Y111	Z111	X112	Y112	Z112	X113	Y113	Z113	X114	Y114	Z114	X115	Y115	Z115	X116	Y116	Z116	X117	Y117	Z117	X118	Y118	Z118	X119	Y119	Z119	X120	Y120	Z120	X121	Y121	Z121	X122	Y122	Z122	X123	Y123	Z123	X124	Y124	Z124	X125	Y125	Z125	X126	Y126	Z126	X127	Y127	Z127	X128	Y128	Z128	X129	Y129	Z129	X130	Y130	Z130	X131	Y131	Z131	X132	Y132	Z132	X133	Y133	Z133	X134	Y134	Z134	X135	Y135	Z135	X136	Y136	Z136	

185	1.84	253.6059875488281	876.9450073242186	1014.590026855469	259.379638671875	867.5625610351561	1185.899169921875	424.8749389648438	867.1802978515624	1008.282958984375	263.6952819824219	1048.072998046875	1023.62255859375	359.760986328125	456.3219909667968	961.125	389.9583129882813	407.2104797363281	1376.830200195313	777.85546875	480.2599182128906	933.5821533203125	339.2730712890625	872.4345703124999	1011.772888183594	335.1480102539063	206.3240051269531	657.448974609375	403.9549560546875	-95.99053955078131	900.749267578125	722.4248046875	244.1474914550781	594.92236328125	359.760986328125	456.3215942382812	961.1246337890625	335.0589904785156	262.8919982910156	598.6129760742188	363.6862182617188	376.9442138671874	790.0609741210938	557.00439453125	230.9666290283203	584.4445190429688	355.0704040527344	453.8176879882812	481.8796081542969	328.1159973144531	141.8769989013672	672.7639770507813	328.1159973144531	141.8769989013672	672.7639770507813	328.1159973144531	141.8769989013672	672.7639770507813	328.1159973144531	141.8769989013672	672.7639770507813	204.2630004882813	494.2839965820312	1170.300048828125	294.1718139648438	651.4341430664061	1546.888427734375	610.7056274414063	494.1225585937499	1073.3310546875	167.939208984375	881.4562988281249	1017.405395507813	243.4299926757813	95.97119903564446	1179.630004882813	198.9818115234375	100.9150238037108	1577.467163085938	639.3653564453125	135.9279174804687	1223.369140625	204.2635040283203	494.2844848632812	1170.304443359375	252.8320007324219	60.56949996948235	1107.599975585938	238.4644165039063	284.4018249511718	1082.7080078125	473.8193969726563	79.38978576660149	1149.281005859375	296.2495422363281	38.84767150878901	887.2138671875	230.6730041503906	79.03589630126946	1247.579956054688	230.6730041503906	79.03589630126946	1247.579956054688	230.6730041503906	79.03589630126946	1247.579956054688	230.6730041503906	79.03589630126946	1247.579956054688	253.7870178222656	1401.410034179688	1047	215.7244873046875	1449.942016601563	1514.9306640625	-216.5382385253906	1387.0859375	1010.228332519531	264.2072143554688	932.1524658203124	1096.517211914063	501.1820068359375	1105.9599609375	1015.400024414063	547.0640869140625	1101.462646484375	746.8382568359376	236.1493530273438	1060.949096679688	970.8745727539064	457.554931640625	1374.669067382813	1003.446838378906	508.06396484375	899.8670043945311	1182.77001953125	569.7689208984375	737.1942138671874	979.9246826171875	248.1395568847656	855.7239990234374	1139.1025390625	501.1387023925781	1107.243774414063	1014.356567382813	495.4469909667969	842.9769897460936	1220.989990234375	570.4465942382813	902.0467529296874	1333.669555664063	619.8294677734375	781.4427490234374	1170.458862304688	522.1849365234375	963.5388183593749	1139.991333007813	37.48730087280273	1095.969970703125	895.5419921875001	79.85704803466797	1153.607421875	637.8881835937501	-225.3753662109375	1129.605346679688	859.8399658203126	62.20126724243164	1354.908813476563	957.5310058593751	-6.987239837646484	841.0529785156249	982.8300170898438	16.01526260375977	749.5222778320313	727.2387084960938	-274.8230895996094	875.3244628906249	946.4524536132813	37.38329696655273	1095.378540039063	895.7457885742189	-17.99139976501465	765.1129760742186	1001.700073242188	-140.040771484375	807.8215332031249	1102.398559570313	88.98201751708984	780.2365112304686	1124.940551757813	4.831724166870117	922.6170043945311	962.561279296875	235.6990051269531	1657.410034179688	980.8740234375001	231.5760803222656	1670.345947265625	1032.648071289063	288.7602233886719	1663.941650390625	983.4675292968751	230.0077972412109	1708.935546875	967.5469970703126	302.5245971679688	1679.605224609375	1030.870239257813	160.7312622070313	1664.030151367188	1024.907104492188	330.4355163574219	1654.789184570313	937.7677001953126	149.1051330566406	1631.234985351563	929.9470825195314	259.3276672363281	1487.186279296875	923.3086547851564	274.2259216308594	1129.1796875	891.5958251953126	253.4236907958984	1401.868286132813	1051.45703125	250.1138153076172	1237.946411132813	1138.25048828125	154.7940368652344	1325.00341796875	858.7254638671876	456.7579650878906	1427.654663085938	996.4532470703126	532.1932983398438	1111.852172851563	1034.699096679688	515.9819946289063	1010.569702148437	1143.301147460938	490.0152282714844	907.4107666015624	1198.3818359375	530.918701171875	897.3325195312499	1172.875244140625	502.8111267089844	848.7771606445311	1232.053344726563	58.6170654296875	1403.674926757813	952.5180664062501	2.193153858184814	1096.686889648438	906.6239013671876	-19.63788032531738	963.0188598632811	967.3072509765626	9.086348533630371	845.0164794921874	1007.975036621094	-29.62141036987305	840.2131347656249	962.9920654296875	-28.78958511352539	768.8920898437499	1010.606872558594	380.9994201660156	942.7197875976561	1070.097045898438	142.6870422363281	959.5197753906249	1077.53564453125	294.2376708984375	960.9439086914063	893.8928833007814	215.2358093261719	961.820068359375	897.2700805664064	429.3234558105469	636.3074340820311	977.2777709960938	379.8595275878906	716.2755126953124	1087.093627929688	378.1178894042969	609.9213867187499	1074.097778320313	410.8567199707031	461.7891540527343	949.7728881835938	406.0744934082031	339.8943481445312	820.0758056640625	359.8114624023438	333.3464965820312	898.7257690429688	354.8080139160156	272.0005493164062	812.989990234375	372.0890808105469	206.5049743652343	648.508544921875	335.2837829589844	264.6731567382812	597.7764892578125	329.0845947265625	117.7564468383789	689.6312866210938	293.8765563964844	76.74249267578121	692.4828491210938	378.9313354492188	76.96008300781246	652.68310546875	93.57309722900391	711.3777465820311	1100.3486328125	161.2150115966797	796.6078491210936	1156.121704101563	178.2261352539063	712.9699096679686	1182.626708984375	153.8180694580078	504.0629272460937	1173.704223632813	166.6058807373047	280.1189270019531	1191.505981445313	207.6841735839844	368.2149353027343	1230.687377929688	220.6077423095703	229.4474792480468	1226.93359375	202.0043334960938	96.50370025634759	1173.0322265625	253.4603881835938	68.75173950195305	1111.949584960938	225.4637908935547	85.53176879882804	1281.173461914063	253.0209655761719	63.79694747924797	1326.780517578125	166.1945953369141	51.72465896606437	1282.899658203125	87.06010437011719	979.5692749023436	976.4645385742189	431.1776733398438	964.3335571289061	980.4583129882814	468.44384765625	1095.140747070313	1018.986572265625	66.26921081542969	1080.520629882813	899.9080810546876	339.2730102539063	872.4349975585936	1011.77001953125	167.9400024414063	881.4559936523436	1017.409912109375	359.760986328125	456.3219909667968	961.125	204.2630004882813	494.2839965820312	1170.300048828125	335.1480102539063	206.3240051269531	657.448974609375	243.4299926757813	95.97119903564446	1179.630004882813	328.1159973144531	141.8769989013672	672.7639770507813	230.6730041503906	79.03589630126946	1247.579956054688	455.4410095214844	1387.680053710938	1002.869934082031	63.07469940185547	1364.069946289063	959.7219848632814	501.1820068359375	1105.9599609375	1015.400024414063	37.48730087280273	1095.969970703125	895.5419921875001	495.4469909667969	842.9769897460936	1220.989990234375	-17.99139976501465	765.1129760742186	1001.700073242188	265.6289978027344	986.3309936523436	1000.5400390625	
186	1.85	252.5669860839844	878.5510253906249	1028.130004882813	257.9319152832031	869.0420532226561	1199.445434570313	423.7944030761719	867.8786621093749	1022.175476074219	263.5475769042969	1049.617919921875	1037.28125	361.7420043945313	456.2219848632812	988.2239990234375	391.6738586425781	420.6727294921874	1405.327026367188	779.6954345703125	482.2630920410156	960.4505615234375	338.2135620117188	873.5859985351561	1025.48388671875	337.9580078125	213.3719940185547	678.7379760742188	404.4859008789063	-94.69651794433599	915.36279296875	725.6844482421875	251.3347625732422	619.1521606445313	361.7421264648438	456.2219238281249	988.22412109375	338.8089904785156	272.0020141601562	621.9630126953125	367.293701171875	378.8489379882812	817.54443359375	560.6114501953125	239.1887817382812	607.58544921875	360.5355529785156	466.9039611816406	512.322998046875	330.4559936523438	148.4579925537109	691.6740112304688	330.4559936523438	148.4579925537109	691.6740112304688	330.4559936523438	148.4579925537109	691.6740112304688	330.4559936523438	148.4579925537109	691.6740112304688	203.8829956054688	494.3689880371093	1178.410034179688	294.6717529296875	646.5574951171874	1556.82080078125	610.072265625	495.7650146484374	1080.395141601563	166.9199523925781	883.5158691406249	1030.771850585938	243.5010070800781	95.99839782714837	1180.680053710938	200.4710235595703	93.98992919921865	1578.69873046875	639.5482177734375	135.6307678222655	1223.696899414063	203.8829193115234	494.3697509765624	1178.4072265625	252.9170227050781	61.4028015136718	1108.260009765625	238.4032745361328	285.4992980957031	1085.965454101563	474.0011596679688	79.83425903320305	1149.600341796875	295.7900390625	42.22003555297846	887.531982421875	230.9210052490234	78.28170013427727	1248.4599609375	230.9210052490234	78.28170013427727	1248.4599609375	230.9210052490234	78.28170013427727	1248.4599609375	230.9210052490234	78.28170013427727	1248.4599609375	253.2919921875	1403.469970703125	1060.069946289063	216.5541381835938	1452.729248046875	1528.030639648438	-217.1327514648438	1388.964965820313	1024.665405273438	263.9784851074219	934.2937011718749	1110.296142578125	500.3059997558594	1107.989990234375	1025.630004882813	544.6676025390625	1105.367431640625	756.7880859375001	234.9744567871094	1063.596069335938	982.2807006835939	456.9236450195313	1376.826538085938	1015.848937988281	508.4620056152344	899.0910034179686	1189.650024414063	568.7587890625	739.7764892578124	983.739013671875	248.2444152832031	855.5527954101561	1147.136474609375	500.2597045898438	1109.184936523438	1024.697265625	495.9349975585938	841.2039794921874	1226.619995117188	570.8676147460938	897.7922363281249	1340.610107421875	620.4092407226563	781.0725097656249	1174.646728515625	522.4326782226563	963.6491699218749	1148.415771484375	36.30950164794922	1097.589965820313	910.6179809570314	76.69442749023438	1154.119384765625	652.4005737304689	-226.8214721679688	1131.0673828125	876.7935180664064	61.48662567138672	1356.79345703125	971.3009643554689	-7.519269943237305	843.2680053710936	999.8619995117188	13.43133163452148	750.112548828125	744.681640625	-275.6284790039063	877.3789062499999	965.3974609375	36.21205902099609	1097.024536132813	910.8167114257814	-18.33880043029785	767.4530029296874	1019.369934082031	-139.6347198486328	810.8286743164061	1120.691772460938	89.56901550292969	783.5168457031249	1141.67333984375	4.099100112915039	924.6813354492186	978.9219970703125	234.906005859375	1659.319946289063	993.9260253906251	230.8554229736328	1672.234130859375	1045.711181640625	287.9691162109375	1665.86572265625	996.4441528320314	229.1805419921875	1710.84912109375	980.6277465820314	301.8018493652344	1681.506591796875	1043.812866210938	159.9980316162109	1665.894409179688	1038.08251953125	329.5987548828125	1656.741088867188	950.7003173828126	148.2228698730469	1633.128784179688	943.1152343750001	258.4722290039063	1489.009155273438	936.2796630859376	273.3578796386719	1130.931274414063	905.1087646484376	252.9415740966797	1403.939575195313	1064.529296875	249.9392700195313	1240.24365234375	1151.5615234375	153.676513671875	1326.788940429688	872.2379760742189	456.1248168945313	1429.701293945313	1008.89794921875	531.3096923828125	1113.698486328125	1045.00146484375	515.9708251953125	1010.605651855469	1152.0390625	490.4259338378906	906.2812499999999	1205.455688476563	531.3013916015625	896.8333740234374	1179.627319335938	503.2915344238281	846.7603149414061	1237.811767578125	57.88579559326172	1405.535278320313	966.1906127929689	1.081658124923706	1098.37158203125	921.9053344726564	-20.30643653869629	965.0762939453124	983.5725708007814	8.746251106262207	847.4028930664061	1024.873413085938	-30.30618095397949	842.2899780273436	980.19287109375	-29.0703067779541	771.2905273437499	1028.334838867188	380.0094604492188	944.7208251953124	1083.901000976563	141.832275390625	961.7165527343749	1091.020874023438	293.9261169433594	962.5805053710938	907.6526489257814	214.8808746337891	963.8701171875	910.8787231445314	430.3332824707031	636.5747680664061	998.6535034179688	379.4527587890625	719.1696777343749	1105.42822265625	378.95751953125	612.5341796874999	1095.885009765625	412.8932800292969	462.1985168457031	976.410400390625	408.6626586914063	342.9465332031249	845.06201171875	361.7178649902344	334.9140624999999	923.2843627929688	356.8609313964844	275.4338684082031	836.113525390625	375.0551452636719	214.3395233154297	670.0272827148438	339.0633544921875	274.7498168945312	620.7755126953125	331.394775390625	124.1884613037109	708.3914794921875	295.9492492675781	81.57761383056636	710.4872436523438	381.4375610351563	83.13758087158199	670.6856689453125	93.0596923828125	712.5480346679686	1111.518432617188	160.4836120605469	797.1568603515624	1168.275634765625	177.8957061767578	712.9185791015624	1193.646728515625	153.4652557373047	504.0339050292968	1181.87255859375	166.48974609375	279.7446594238281	1196.087646484375	207.5973052978516	367.2401733398437	1236.725219726563	220.6264801025391	228.6165008544921	1230.56103515625	202.2543487548828	96.72077941894524	1174.292114257813	253.5226287841797	69.2371520996093	1112.474487304688	225.7460327148438	84.27941131591788	1282.22509765625	253.3721923828125	62.11924362182609	1327.514038085938	166.2780456542969	51.0098342895507	1283.609619140625	86.42165374755859	981.7874755859374	989.8395996093751	430.4379577636719	965.9127197265624	994.3089599609376	467.4107360839844	1097.277587890625	1029.437133789063	65.09658050537109	1082.162963867188	914.8468627929689	338.2139892578125	873.5859985351561	1025.47998046875	166.9199981689453	883.5159912109374	1030.77001953125	361.7420043945313	456.2219848632812	988.2239990234375	203.8829956054688	494.3689880371093	1178.410034179688	337.9580078125	213.3719940185547	678.7379760742188	243.5010070800781	95.99839782714837	1180.680053710938	330.4559936523438	148.4579925537109	691.6740112304688	230.9210052490234	78.28170013427727	1248.4599609375	454.8399963378906	1389.739990234375	1015.380004882813	62.37590026855469	1365.949951171875	973.4439697265626	500.3059997558594	1107.989990234375	1025.630004882813	36.30950164794922	1097.589965820313	910.6179809570314	495.9349975585938	841.2039794921874	1226.619995117188	-18.33880043029785	767.4530029296874	1019.369934082031	265.3330078125	987.9639892578124	1014.199951171875	
187	1.86	251.5619964599609	880.2860107421874	1041.430053710938	256.4415588378906	870.6018066406249	1212.750244140625	422.7500610351563	868.7839965820311	1035.904052734375	263.3528137207031	1051.289306640625	1050.760498046875	363.52099609375	456.7200012207031	1015.300048828125	392.9720458984375	434.8763427734374	1433.379150390625	781.3414916992188	484.6133422851562	987.3245849609375	337.1903991699219	874.9058837890624	1039.004150390625	340.5849914550781	219.6950073242187	701.2650146484375	404.8052978515625	-92.90768432617193	932.5198364257813	728.7514038085938	257.4080505371093	644.4490356445313	363.5214233398438	456.7198486328124	1015.2978515625	342.1289978027344	279.6010131835937	645.85302734375	370.0615844726563	381.7737426757812	843.9950561523438	563.8790283203125	246.3146209716797	631.756591796875	365.0737915039063	476.9142150878906	540.8731079101563	332.7890014648438	154.5260009765624	712.6539916992188	332.7890014648438	154.5260009765624	712.6539916992188	332.7890014648438	154.5260009765624	712.6539916992188	332.7890014648438	154.5260009765624	712.6539916992188	203.4499969482422	494.4039916992187	1185.650024414063	294.4528503417969	641.0386962890624	1566.196166992188	609.5407104492188	497.6898803710937	1087.272338867188	165.9341125488281	885.6661376953124	1043.857543945313	243.5269927978516	96.09490203857415	1181.47998046875	201.4677886962891	87.69411468505849	1579.518798828125	639.6322021484375	135.5033416748046	1224.166625976563	203.4496307373047	494.4049377441406	1185.651733398438	252.9839935302734	62.13949966430657	1108.760009765625	238.3422546386719	286.4222106933593	1088.515625	474.1306457519531	80.28904724121087	1149.890380859375	295.4896240234375	44.96945953369135	887.7952880859375	231.0700073242188	77.7611999511718	1249.119995117188	231.0700073242188	77.7611999511718	1249.119995117188	231.0700073242188	77.7611999511718	1249.119995117188	231.0700073242188	77.7611999511718	1249.119995117188	252.8490142822266	1405.660034179688	1073.06005859375	217.4876098632813	1455.557373046875	1541.05908203125	-217.6755828857422	1391.016845703125	1039.069091796875	263.7752380371094	936.5554809570311	1123.900756835938	499.4909973144531	1110.170043945313	1035.670043945313	542.2098999023438	1109.504516601563	766.5502929687501	233.8524169921875	1066.374389648438	993.6120605468751	456.3397827148438	1379.11669921875	1028.1552734375	508.9520263671875	898.5239868164061	1196.31005859375	567.7378540039063	742.5887451171874	987.397216796875	248.4334106445313	855.5723876953124	1155.0625	499.4429016113281	1111.257446289063	1034.847290039063	496.5150146484375	839.6719970703124	1232.06005859375	571.45849609375	893.8018188476561	1347.230834960938	621.0355224609375	780.9108276367186	1178.650146484375	522.763427734375	963.8812866210936	1156.601928710938	35.07529830932617	1099.390014648438	925.6900024414064	73.29718780517578	1154.769775390625	666.8948364257814	-228.3241119384766	1132.782348632813	893.9337158203126	60.8161735534668	1358.8525390625	985.0142822265626	-8.101320266723633	845.7899780273436	1017.150024414063	10.55588150024414	750.7676391601563	762.48046875	-276.484130859375	879.8138427734374	984.793212890625	34.98577117919922	1098.865112304688	925.8791503906251	-18.76729965209961	770.1389770507811	1037.400024414063	-139.2834167480469	814.3956298828124	1139.269897460938	90.07640075683594	787.2652587890624	1158.72607421875	3.350032806396484	927.0092773437499	995.4144897460938	234.1730041503906	1661.359985351563	1006.940002441406	230.1974334716797	1674.245971679688	1058.737915039063	287.2383728027344	1667.91650390625	1009.381774902344	228.4158477783203	1712.894897460938	993.6775512695314	301.1420593261719	1683.53466796875	1056.715454101563	159.3285980224609	1667.89208984375	1051.217895507813	328.8207092285156	1658.826538085938	963.5899047851564	147.4000549316406	1635.165283203125	956.2438964843751	257.6598510742188	1490.976928710938	949.1892700195314	272.5066833496094	1132.838623046875	918.4889526367189	252.5123748779297	1406.138061523438	1077.524291992188	249.8168334960938	1242.659545898438	1164.74755859375	152.5742340087891	1328.764892578125	885.6699829101564	455.5394592285156	1431.8798828125	1021.255554199219	530.4984741210938	1115.688720703125	1055.085815429688	516.0541381835938	1010.818786621094	1160.555908203125	490.9389038085938	905.3654785156249	1212.324096679688	531.7686157226563	896.5369873046874	1186.162841796875	503.8732299804688	844.9866333007811	1243.365844726563	57.20101547241211	1407.570434570313	979.8085937500001	-0.08416436612606049	1100.250732421875	937.1820068359376	-21.01755332946777	967.4022827148436	999.9609985351564	8.35921573638916	850.1228027343749	1042.012817382813	-31.04342460632324	844.6544189453124	997.652587890625	-29.42984008789063	774.0548095703124	1046.405883789063	379.0195007324219	946.9030761718749	1097.531372070313	140.9571838378906	963.9808349609374	1104.244018554688	293.6573791503906	964.408447265625	921.2199707031251	214.5787353515625	966.0814819335938	924.2765502929689	431.2508850097656	637.2933349609374	1019.917053222656	378.9740295410156	722.4556884765624	1123.624633789063	379.6272277832031	615.6515502929686	1117.54150390625	414.7052307128906	463.1296386718749	1003.087097167969	411.0452575683594	345.9704284667968	870.6077880859375	363.4453430175781	336.7578430175781	948.4300537109375	358.7322387695313	278.8312072753906	860.1416015625	377.7943725585938	221.2896881103515	692.7786865234375	342.4185180664063	283.0752258300781	644.39599609375	333.7249755859375	130.3087005615234	729.2503662109375	298.1939086914063	86.20950317382808	731.1046752929688	384.0924377441406	88.96485137939449	691.3304443359375	92.47708892822266	713.6386718749999	1122.018798828125	159.6058807373047	797.5830078124999	1179.97900390625	177.394287109375	712.6994628906249	1204.084838867188	153.0526733398438	503.9388732910156	1189.190307617188	166.3150177001953	279.4388122558593	1200.060791015625	207.3853302001953	366.3678588867187	1242.102416992188	220.52197265625	227.9246215820312	1233.71337890625	202.4630737304688	96.94018554687493	1175.283813476563	253.56787109375	69.62507629394524	1112.829345703125	225.9303283691406	83.29850006103507	1283.01123046875	253.6179656982422	60.8197708129882	1327.992431640625	166.2788543701172	50.52612304687492	1284.1181640625	85.80873870849609	984.0737304687499	1002.918395996094	429.7194213867188	967.7211914062499	1007.969421386719	466.4500732421875	1099.557250976563	1039.688354492188	63.86606597900391	1083.975708007813	929.7666015625001	337.1910095214844	874.9060058593749	1039	165.9340057373047	885.6660156249999	1043.859985351563	363.52099609375	456.7200012207031	1015.300048828125	203.4499969482422	494.4039916992187	1185.650024414063	340.5849914550781	219.6950073242187	701.2650146484375	243.5269927978516	96.09490203857415	1181.47998046875	332.7890014648438	154.5260009765624	712.6539916992188	231.0700073242188	77.7611999511718	1249.119995117188	454.2839965820313	1391.930053710938	1027.800048828125	61.72269821166992	1367.989990234375	987.1030273437501	499.4909973144531	1110.170043945313	1035.670043945313	35.07529830932617	1099.390014648438	925.6900024414064	496.5150146484375	839.6719970703124	1232.06005859375	-18.76729965209961	770.1389770507811	1037.400024414063	265.0289916992188	989.7249755859374	1027.739990234375	
